<svg xmlns="http://www.w3.org/2000/svg" viewBox="0 0 64 64"><path fill="#000" d="M54.373 38.209a6.633 6.633 0 1 1-6.633-6.633 6.64 6.64 0 0 1 6.633 6.633ZM43.615 46.9v6.94a1 1 0 0 0 1.485.875l1.914-1.06a1.5 1.5 0 0 1 1.453 0l1.913 1.06a1 1 0 0 0 1.484-.875V46.9a9.511 9.511 0 0 1-8.249 0ZM60.04 8.42v38.35a1 1 0 0 1-1 1h-4.18v-3.1a9.543 9.543 0 0 0 2.51-6.46 9.63 9.63 0 1 0-16.75 6.46v3.1H4.96a1 1 0 0 1-1-1V8.42a1 1 0 0 1 1-1h54.08a1 1 0 0 1 1 1Zm-38.69 7.07a1.498 1.498 0 0 0 1.5 1.5h18.3a1.5 1.5 0 1 0 0-3h-18.3a1.498 1.498 0 0 0-1.5 1.5Zm13.59 20.44a1.498 1.498 0 0 0-1.5-1.5H11.03a1.5 1.5 0 0 0 0 3h22.41a1.498 1.498 0 0 0 1.5-1.5Zm2.05-6.81a1.498 1.498 0 0 0-1.5-1.5H11.03a1.5 1.5 0 1 0 0 3h24.46a1.498 1.498 0 0 0 1.5-1.5Zm17.48-6.82a1.504 1.504 0 0 0-1.5-1.5H11.03a1.5 1.5 0 1 0 0 3h41.94a1.498 1.498 0 0 0 1.5-1.5Z" data-name="Certificate"/></svg>